<?xml version="1.0"?>
<svg xmlns="http://www.w3.org/2000/svg" height="512px" viewBox="0 0 192 192" width="512px" class=""><g><path d="m189.87 119.564a8 8 0 0 0 -9.448-1.719c-16.186 8.093-23.7 4.257-34.1-1.056-7.151-3.651-15.252-7.789-26.322-7.789-11.6 0-21.881 7.99-23.922 18.585-.026.136-.052.283-.078.438-.026-.155-.052-.3-.078-.438-2.041-10.595-12.322-18.585-23.922-18.585-11.07 0-19.171 4.138-26.318 7.789-10.4 5.314-17.916 9.15-34.1 1.056a8 8 0 0 0 -10.442 11.271 77 77 0 0 0 19.16 20.354c10.342 7.522 21.515 11.313 33.037 11.313a58.068 58.068 0 0 0 21.639-4.355c15.5-6.2 20-15.218 21.029-21.767 1.026 6.549 5.527 15.566 21.029 21.767a58.068 58.068 0 0 0 21.639 4.355c11.521 0 22.7-3.792 33.037-11.313a77 77 0 0 0 19.155-20.354 8 8 0 0 0 -.995-9.552z" data-original="#000000" class="active-path" data-old_color="#000000" fill="#FEFAFA"/><path d="m192 32h-80a8 8 0 0 0 -8 8v16h-16v-16a8 8 0 0 0 -8-8h-80v16h8v24a24.028 24.028 0 0 0 24 24h24a32.057 32.057 0 0 0 30.987-24h18.026a32.057 32.057 0 0 0 30.987 24h24a24.028 24.028 0 0 0 24-24v-24h8zm-120 32a16.019 16.019 0 0 1 -16 16h-24a8.009 8.009 0 0 1 -8-8v-24h48zm96 8a8.009 8.009 0 0 1 -8 8h-24a16.019 16.019 0 0 1 -16-16v-16h48z" data-original="#000000" class="active-path" data-old_color="#000000" fill="#FEFAFA"/></g> </svg>
